<?xml version="1.0" encoding="utf-8"?>
<!-- Generator: Adobe Illustrator 23.0.3, SVG Export Plug-In . SVG Version: 6.00 Build 0)  -->
<svg version="1.1" id="Layer_1" xmlns="http://www.w3.org/2000/svg" xmlns:xlink="http://www.w3.org/1999/xlink" x="0px" y="0px"
	 viewBox="0 0 67.61 29.48" style="enable-background:new 0 0 67.61 29.48;" xml:space="preserve">
<style type="text/css">
	.st0{fill:white;}
</style>
<g>
	<path class="st0" d="M61.8,11.7c0.96-1.09,1.44-2.48,1.44-4.13c0-2.53-0.93-4.44-2.77-5.69C58.64,0.63,55.83,0,52.12,0h-9.99v14.33
		h9.25C57.38,14.33,60.74,12.91,61.8,11.7z M46.63,3h5.49c2.1,0,3.71,0.35,4.78,1.04c1.06,0.68,1.6,1.71,1.6,3.06
		c0,1.35-0.54,2.39-1.6,3.08c-1.07,0.7-2.68,1.05-4.78,1.05h-5.49V3z"/>
	<path class="st0" d="M19.45,11.42c0.89-1.05,1.34-2.48,1.34-4.24c0-2.28-0.88-4.07-2.61-5.31c-1.73-1.23-4.22-1.86-7.42-1.86H0
		V14.3h10.96C16.21,14.3,18.53,12.5,19.45,11.42z M4.29,11.22V3.31h6.15c2.03,0,3.55,0.33,4.55,0.99c0.98,0.65,1.48,1.65,1.48,2.97
		c0,1.33-0.5,2.33-1.48,2.98c-0.99,0.65-2.52,0.98-4.55,0.98H4.29z"/>
	<path class="st0" d="M20.19,17.71c-1.1-1.11-2.47-2.5-7.44-2.5H0v14.1h11.17c3.47,0,6.18-0.62,8.05-1.85
		c1.89-1.23,2.84-3.01,2.84-5.27c0-1.72-0.58-3.18-1.73-4.32L20.19,17.71z M15.94,25.36c-1.07,0.69-2.75,1.04-4.98,1.04H4.29v-8.39
		h6.67c2.24,0,3.91,0.34,4.98,1.03c1.07,0.67,1.61,1.74,1.61,3.16C17.55,23.61,17.01,24.68,15.94,25.36z"/>
	<path class="st0" d="M60.4,18.08c-0.86-0.86-4.13-2.75-8.28-2.75h-9.99v14.13h4.5v-11.4h4.75c1.72,0,3.1,0.31,4.1,0.91
		c1,0.6,2.04,1.84,3.11,3.69l4.16,6.78l0.01,0.02h4.84l-4.51-7.69C62.21,20.23,61.3,18.98,60.4,18.08z"/>
	<rect x="24.59" y="0.04" class="st0" width="4.76" height="29.45"/>
	<rect x="33.58" y="0.04" class="st0" width="4.76" height="29.45"/>
	<path class="st0" d="M65.51,4.2c1.16,0,2.1-0.94,2.1-2.1S66.67,0,65.51,0s-2.1,0.94-2.1,2.1S64.35,4.2,65.51,4.2z M65.51,0.3
		c0.99,0,1.8,0.81,1.8,1.8c0,0.4-0.14,0.77-0.36,1.07l-0.3-0.51c-0.09-0.16-0.18-0.28-0.27-0.38c-0.04-0.04-0.13-0.09-0.24-0.14
		c0.2-0.05,0.32-0.12,0.38-0.19c0.1-0.11,0.15-0.25,0.15-0.42c0-0.26-0.09-0.45-0.28-0.58c-0.19-0.13-0.47-0.19-0.85-0.19h-1.01
		v1.24v0.21v1.22h0.46V2.28h0.48c0.17,0,0.31,0.03,0.42,0.09c0.1,0.06,0.21,0.19,0.31,0.37l0.42,0.69l0.03,0.05
		c-0.31,0.25-0.7,0.41-1.13,0.41c-0.99,0-1.8-0.81-1.8-1.8S64.52,0.3,65.51,0.3z M65.54,1.9h-0.56V1.07h0.56
		c0.21,0,0.38,0.04,0.48,0.11c0.11,0.07,0.16,0.17,0.16,0.31c0,0.14-0.05,0.24-0.16,0.31C65.91,1.87,65.75,1.9,65.54,1.9z"/>
</g>
</svg>
