<svg xmlns="http://www.w3.org/2000/svg" viewBox="0 0 67.61 29.48"><path d="M61.8 11.7c.96-1.09 1.44-2.48 1.44-4.13 0-2.53-.93-4.44-2.77-5.69C58.64.63 55.83 0 52.12 0h-9.99v14.33h9.25c6 0 9.36-1.42 10.42-2.63zM46.63 3h5.49c2.1 0 3.71.35 4.78 1.04 1.06.68 1.6 1.71 1.6 3.06s-.54 2.39-1.6 3.08c-1.07.7-2.68 1.05-4.78 1.05h-5.49V3zm-27.18 8.42c.89-1.05 1.34-2.48 1.34-4.24 0-2.28-.88-4.07-2.61-5.31C16.45.64 13.96.01 10.76.01H0V14.3h10.96c5.25 0 7.57-1.8 8.49-2.88zm-15.16-.2V3.31h6.15c2.03 0 3.55.33 4.55.99.98.65 1.48 1.65 1.48 2.97 0 1.33-.5 2.33-1.48 2.98-.99.65-2.52.98-4.55.98H4.29zm15.9 6.49c-1.1-1.11-2.47-2.5-7.44-2.5H0v14.1h11.17c3.47 0 6.18-.62 8.05-1.85 1.89-1.23 2.84-3.01 2.84-5.27 0-1.72-.58-3.18-1.73-4.32l-.14-.16zm-4.25 7.65c-1.07.69-2.75 1.04-4.98 1.04H4.29v-8.39h6.67c2.24 0 3.91.34 4.98 1.03 1.07.67 1.61 1.74 1.61 3.16 0 1.41-.54 2.48-1.61 3.16zm44.46-7.28c-.86-.86-4.13-2.75-8.28-2.75h-9.99v14.13h4.5v-11.4h4.75c1.72 0 3.1.31 4.1.91 1 .6 2.04 1.84 3.11 3.69l4.16 6.78.01.02h4.84l-4.51-7.69c-.88-1.54-1.79-2.79-2.69-3.69zM24.59.04h4.76v29.45h-4.76zm8.99 0h4.76v29.45h-4.76zM65.51 4.2a2.1 2.1 0 100-4.2 2.1 2.1 0 000 4.2zm0-3.9c.99 0 1.8.81 1.8 1.8 0 .4-.14.77-.36 1.07l-.3-.51c-.09-.16-.18-.28-.27-.38a.941.941 0 00-.24-.14c.2-.05.32-.12.38-.19a.6.6 0 00.15-.42c0-.26-.09-.45-.28-.58-.19-.13-.47-.19-.85-.19h-1.01v2.67h.46V2.28h.48c.17 0 .31.03.42.09.1.06.21.19.31.37l.42.69.03.05c-.31.25-.7.41-1.13.41-.99 0-1.8-.81-1.8-1.8S64.52.3 65.51.3zm.03 1.6h-.56v-.83h.56c.21 0 .38.04.48.11.11.07.16.17.16.31 0 .14-.05.24-.16.31s-.27.1-.48.1z" fill="#fff"/></svg>